<mxfile host="app.diagrams.net" agent="Mozilla/5.0 (Windows NT 10.0; Win64; x64) AppleWebKit/537.36 (KHTML, like Gecko) Chrome/138.0.0.0 Safari/537.36 Edg/138.0.0.0" version="28.0.6">
  <diagram name="第 1 页" id="3_IjtahEqF5f6_h6dhQM">
    <mxGraphModel dx="247" dy="236" grid="1" gridSize="1" guides="1" tooltips="1" connect="1" arrows="1" fold="1" page="1" pageScale="1" pageWidth="1169" pageHeight="1654" math="0" shadow="0">
      <root>
        <mxCell id="0" />
        <mxCell id="1" parent="0" />
        <mxCell id="q-1dDg8Za3zNrtGVE4Yi-31" value="&lt;b&gt;(a) Backdoor attack pipeline for lipreading&amp;nbsp; models&lt;/b&gt;" style="text;strokeColor=none;align=center;fillColor=none;html=1;verticalAlign=middle;whiteSpace=wrap;rounded=0;" vertex="1" parent="1">
          <mxGeometry x="217" y="220" width="299" height="14" as="geometry" />
        </mxCell>
        <mxCell id="q-1dDg8Za3zNrtGVE4Yi-32" value="" style="shape=image;verticalLabelPosition=bottom;labelBackgroundColor=default;verticalAlign=top;aspect=fixed;imageAspect=0;editableCssRules=.*;image=data:image/svg+xml,PHN2ZyB4bWxuczp4bGluaz0iaHR0cDovL3d3dy53My5vcmcvMTk5OS94bGluayIgeG1sbnM9Imh0dHA6Ly93d3cudzMub3JnLzIwMDAvc3ZnIiBoZWlnaHQ9IjE3NC40NTMxMzkzMDUxMTQ3NSIgd2lkdGg9IjE1My4zMjAzMTI1IiB2ZXJzaW9uPSIxLjEiIHZpZXdCb3g9IjExOS41MDAwMDc2MjkzOTQ1MyA2NS42MDAwMDYxMDM1MTU2MiA3ODUgODkzLjIwMDA3MzI0MjE4NzUiIGNsYXNzPSJpY29uIj48cGF0aCBmaWxsPSIjMzMzMzMzIiBkPSJNOTA0LjUgNjA0LjZjMC0yLjgtMC4xLTUuNy0wLjQtOC42VjIzNS43aC0wLjR2LTAuOWMwLTE5LjgtNy00OS41LTQwLjEtNzguOC0yMS4yLTE4LjgtNTAuNy0zNS4zLTg3LjYtNDkuMS03MS4yLTI2LjYtMTY1LjEtNDEuMy0yNjQuNC00MS4zcy0xOTMuMiAxNC43LTI2NC40IDQxLjNjLTM2LjggMTMuOC02Ni4zIDMwLjMtODcuNiA0OS4xLTMzLjIgMjkuMy00MC4xIDU5LTQwLjEgNzguOCAwIDIuOSAwLjEgNS43IDAuNCA4LjZ2MTcxLjhjLTAuMSAxLjQtMC4xIDIuOC0wLjEgNC4yIDAgMS40IDAgMi45IDAuMSA0LjJWNzkwYzAuMSAxOS44IDcuMiA0OS4zIDQwLjEgNzguNCAyMS4yIDE4LjggNTAuNyAzNS4zIDg3LjYgNDkuMSA3MS4yIDI2LjYgMTY1LjEgNDEuMyAyNjQuNCA0MS4zczE5My4yLTE0LjcgMjY0LjQtNDEuM2MzNi44LTEzLjggNjYuMy0zMC4zIDg3LjYtNDkuMSAzMi45LTI5LjEgNDAtNTguNiA0MC4xLTc4LjRWNjEzLjJjMC4zLTIuOSAwLjQtNS44IDAuNC04LjZ6TTE5MS45IDMzNi44YzE0IDguMyAzMC42IDE2LjQgNTAuMyAyNEMzMTQgMzg4LjYgNDA5LjYgNDA0IDUxMS42IDQwNGMxMDIgMCAxOTcuOC0xNS40IDI2OS42LTQzLjMgMTkuMS03LjQgMzYuMS0xNS42IDUwLjktMjQuNXY4My4yYzAgMTQuNS0yMy44IDM4LjQtNzYuOSA1OUM2OTIuMyA1MDMgNjAzLjUgNTE3IDUxMS42IDUxN2MtOTEuOCAwLTE4MC41LTE0LTI0My4yLTM4LjUtNTAuNy0xOS44LTc0LjctNDIuOC03Ni40LTU3LjN2LTg0LjR6IG0xNS40LTEyNi45YzE0LjQtMTIuNyAzNi45LTI1IDY1LjEtMzUuNiA2My4zLTIzLjcgMTQ4LjMtMzYuNyAyMzkuMi0zNi43czE3NS45IDEzIDIzOS4yIDM2LjdjMjguMiAxMC41IDUwLjcgMjIuOCA2NS4xIDM1LjYgNS44IDUuMiAxNS42IDE1LjIgMTUuOCAyNC42djAuNWMtMC4yIDE0LjQtMjQgMzguMS03Ni41IDU4LjVDNjkyLjMgMzE4IDYwMy41IDMzMiA1MTEuNiAzMzJTMzMxIDMxOCAyNjguMiAyOTMuN2MtNTEuNy0yMC03My4yLTQxLjktNzYuMy01NS4zdi0yLjdoLTAuNHYtMC45YzAtOS40IDkuOS0xOS42IDE1LjgtMjQuOXogbS0xNS40IDMxMS41YzE0LjcgOC43IDMxLjUgMTYuOCA1MC4zIDI0LjIgNzEuOCAyOCAxNjcuNSA0My40IDI2OS40IDQzLjQgMTAyIDAgMTk3LjctMTUuNCAyNjkuNy00My40IDE5LTcuNCAzNi0xNS42IDUwLjgtMjQuNHY4Ni45Yy0zLjEgMTMuNC0yNC44IDM1LjMtNzYuOCA1NS40LTYzIDI0LjMtMTUxLjggMzguMy0yNDMuNyAzOC4zLTkxLjYgMC0xODAuMS0xNC0yNDIuNy0zOC4zLTUzLjEtMjAuNi03Ni45LTQ0LjYtNzYuOS01OS4ydi04Mi45eiBtNjI0LjQgMjkzYy0xNC40IDEyLjctMzYuOSAyNS02NS4xIDM1LjYtNjMuMyAyMy43LTE0OC4zIDM2LjctMjM5LjIgMzYuNy05MC45IDAtMTc1LjktMTMtMjM5LjItMzYuNy0yOC4yLTEwLjUtNTAuNy0yMi44LTY1LjEtMzUuNi01LjktNS4yLTE1LjgtMTUuNC0xNS44LTI0Ljl2LTgzLjNjMTQuOCA4LjggMzEuOCAxNyA1MC44IDI0LjQgNzEuNyAyNy45IDE2Ny4yIDQzLjIgMjY4LjggNDMuMiAxMDEuOSAwIDE5Ny43LTE1LjMgMjY5LjctNDMuMSAxOS45LTcuNyAzNi43LTE1LjkgNTAuOS0yNC4ydjgzLjFjMCA5LjQtOS45IDE5LjYtMTUuOCAyNC44eiIvPjxwYXRoIGZpbGw9IiMzMzMzMzMiIGQ9Ik03MzEuNTIxMDg1IDQyOS43ODIxOGEzMS4yIDMxLjIgMCAxIDAgNjEuNTk1MDM4LTkuOTkwNTYyIDMxLjIgMzEuMiAwIDEgMC02MS41OTUwMzggOS45OTA1NjJaIi8+PHBhdGggZmlsbD0iIzMzMzMzMyIgZD0iTTc2Mi43IDYwNi41bS0zMS4yIDBhMzEuMiAzMS4yIDAgMSAwIDYyLjQgMCAzMS4yIDMxLjIgMCAxIDAtNjIuNCAwWiIvPjxwYXRoIGZpbGw9IiMzMzMzMzMiIGQ9Ik03NjIuNyA3OTMuOW0tMzEuMiAwYTMxLjIgMzEuMiAwIDEgMCA2Mi40IDAgMzEuMiAzMS4yIDAgMSAwLTYyLjQgMFoiLz48L3N2Zz4=;" vertex="1" parent="1">
          <mxGeometry x="248" y="254" width="29.89" height="34" as="geometry" />
        </mxCell>
        <mxCell id="q-1dDg8Za3zNrtGVE4Yi-33" value="&lt;font style=&quot;font-size: 8px;&quot; face=&quot;Times New Roman&quot;&gt;Clean dataset&lt;/font&gt;" style="text;strokeColor=none;align=center;fillColor=none;html=1;verticalAlign=middle;whiteSpace=wrap;rounded=0;" vertex="1" parent="1">
          <mxGeometry x="222" y="237" width="85" height="14" as="geometry" />
        </mxCell>
        <mxCell id="q-1dDg8Za3zNrtGVE4Yi-34" value="" style="endArrow=classic;html=1;rounded=0;" edge="1" parent="1">
          <mxGeometry width="50" height="50" relative="1" as="geometry">
            <mxPoint x="287" y="274.44" as="sourcePoint" />
            <mxPoint x="346" y="274" as="targetPoint" />
          </mxGeometry>
        </mxCell>
        <mxCell id="q-1dDg8Za3zNrtGVE4Yi-35" value="&lt;font style=&quot;font-size: 8px;&quot; face=&quot;Times New Roman&quot;&gt;Trigger inject&lt;/font&gt;" style="text;strokeColor=none;align=center;fillColor=none;html=1;verticalAlign=middle;whiteSpace=wrap;rounded=0;" vertex="1" parent="1">
          <mxGeometry x="285" y="257" width="55" height="12" as="geometry" />
        </mxCell>
        <mxCell id="q-1dDg8Za3zNrtGVE4Yi-37" value="" style="shape=image;verticalLabelPosition=bottom;labelBackgroundColor=default;verticalAlign=top;aspect=fixed;imageAspect=0;editableCssRules=.*;image=data:image/svg+xml,PHN2ZyB4bWxucz0iaHR0cDovL3d3dy53My5vcmcvMjAwMC9zdmciIGZpbGw9Im5vbmUiIHZpZXdCb3g9IjM5LjMzOTgwMTc4ODMzMDA4IDUuODEyNSAxNTMuMzIwMjA1Njg4NDc2NTYgMTc0LjQ1MzUwNjQ2OTcyNjU2IiBoZWlnaHQ9IjE3NC40NTM1MDY0Njk3MjY1NiIgd2lkdGg9IjE1My4zMjAyMDU2ODg0NzY1NiI+JiN4YTs8ZyBjbGlwLXBhdGg9InVybCgjY2xpcDBfMF8xKSI+JiN4YTs8cmVjdCBmaWxsPSIjRUQ1QTMxIiBoZWlnaHQ9IjM2IiB3aWR0aD0iMTI4IiB5PSIxMzAiIHg9IjUyIi8+JiN4YTs8cGF0aCBmaWxsPSIjMzMzMzMzIiBkPSJNMTkyLjY2IDExMS4wODZDMTkyLjY2IDExMC41MzkgMTkyLjY0MSAxMDkuOTczIDE5Mi41ODIgMTA5LjQwNlYzOS4wMzUySDE5Mi41MDRWMzguODU5NEMxOTIuNTA0IDM0Ljk5MjIgMTkxLjEzNyAyOS4xOTE0IDE4NC42NzIgMjMuNDY4OEMxODAuNTMxIDE5Ljc5NjkgMTc0Ljc3IDE2LjU3NDIgMTY3LjU2MiAxMy44Nzg5QzE1My42NTYgOC42ODM1OSAxMzUuMzE2IDUuODEyNSAxMTUuOTIyIDUuODEyNUM5Ni41MjczIDUuODEyNSA3OC4xODc1IDguNjgzNTkgNjQuMjgxMiAxMy44Nzg5QzU3LjA5MzcgMTYuNTc0MiA1MS4zMzIgMTkuNzk2OSA0Ny4xNzE5IDIzLjQ2ODhDNDAuNjg3NSAyOS4xOTE0IDM5LjMzOTggMzQuOTkyMiAzOS4zMzk4IDM4Ljg1OTRDMzkuMzM5OCAzOS40MjU4IDM5LjM1OTQgMzkuOTcyNyAzOS40MTggNDAuNTM5MVY3NC4wOTM4QzM5LjM5ODQgNzQuMzY3MiAzOS4zOTg0IDc0LjY0MDYgMzkuMzk4NCA3NC45MTQxQzM5LjM5ODQgNzUuMTg3NSAzOS4zOTg0IDc1LjQ4MDUgMzkuNDE4IDc1LjczNDRWMTQ3LjI5N0MzOS40Mzc1IDE1MS4xNjQgNDAuODI0MiAxNTYuOTI2IDQ3LjI1IDE2Mi42MDlDNTEuMzkwNiAxNjYuMjgxIDU3LjE1MjMgMTY5LjUwNCA2NC4zNTk0IDE3Mi4xOTlDNzguMjY1NiAxNzcuMzk1IDk2LjYwNTUgMTgwLjI2NiAxMTYgMTgwLjI2NkMxMzUuMzk1IDE4MC4yNjYgMTUzLjczNCAxNzcuMzk1IDE2Ny42NDEgMTcyLjE5OUMxNzQuODI4IDE2OS41MDQgMTgwLjU5IDE2Ni4yODEgMTg0Ljc1IDE2Mi42MDlDMTkxLjE3NiAxNTYuOTI2IDE5Mi41NjIgMTUxLjE2NCAxOTIuNTgyIDE0Ny4yOTdWMTEyLjc2NkMxOTIuNjQxIDExMi4xOTkgMTkyLjY2IDExMS42MzMgMTkyLjY2IDExMS4wODZaTTUzLjQ4MDUgNTguNzgxMkM1Ni4yMTQ4IDYwLjQwMjMgNTkuNDU3IDYxLjk4NDQgNjMuMzA0NyA2My40Njg3Qzc3LjMyODEgNjguODk4NCA5NiA3MS45MDYyIDExNS45MjIgNzEuOTA2MkMxMzUuODQ0IDcxLjkwNjIgMTU0LjU1NSA2OC44OTg0IDE2OC41NzggNjMuNDQ5MkMxNzIuMzA5IDYyLjAwMzkgMTc1LjYyOSA2MC40MDIzIDE3OC41MiA1OC42NjQxVjc0LjkxNDFDMTc4LjUyIDc3Ljc0NjEgMTczLjg3MSA4Mi40MTQxIDE2My41IDg2LjQzNzVDMTUxLjIxNSA5MS4yNDIyIDEzMy44NzEgOTMuOTc2NiAxMTUuOTIyIDkzLjk3NjZDOTcuOTkyMiA5My45NzY2IDgwLjY2OCA5MS4yNDIyIDY4LjQyMTkgODYuNDU3QzU4LjUxOTUgODIuNTg5OCA1My44MzIgNzguMDk3NyA1My41IDc1LjI2NTZWNTguNzgxMkg1My40ODA1Wk01Ni40ODgzIDMzLjk5NjFDNTkuMzAwOCAzMS41MTU2IDYzLjY5NTMgMjkuMTEzMyA2OS4yMDMxIDI3LjA0M0M4MS41NjY0IDIyLjQxNDEgOTguMTY4IDE5Ljg3NSAxMTUuOTIyIDE5Ljg3NUMxMzMuNjc2IDE5Ljg3NSAxNTAuMjc3IDIyLjQxNDEgMTYyLjY0MSAyNy4wNDNDMTY4LjE0OCAyOS4wOTM4IDE3Mi41NDMgMzEuNDk2MSAxNzUuMzU1IDMzLjk5NjFDMTc2LjQ4OCAzNS4wMTE3IDE3OC40MDIgMzYuOTY0OCAxNzguNDQxIDM4LjgwMDhWMzguODk4NEMxNzguNDAyIDQxLjcxMDkgMTczLjc1NCA0Ni4zMzk4IDE2My41IDUwLjMyNDJDMTUxLjIxNSA1NS4xMDk0IDEzMy44NzEgNTcuODQzNyAxMTUuOTIyIDU3Ljg0MzdDOTcuOTcyNyA1Ny44NDM3IDgwLjY0ODQgNTUuMTA5NCA2OC4zODI4IDUwLjM2MzNDNTguMjg1MiA0Ni40NTcgNTQuMDg1OSA0Mi4xNzk3IDUzLjQ4MDUgMzkuNTYyNVYzOS4wMzUySDUzLjQwMjNWMzguODU5NEM1My40MDIzIDM3LjAyMzQgNTUuMzM1OSAzNS4wMzEyIDU2LjQ4ODMgMzMuOTk2MVpNNTMuNDgwNSA5NC44MzU5QzU2LjM1MTYgOTYuNTM1MiA1OS42MzI4IDk4LjExNzIgNjMuMzA0NyA5OS41NjI1Qzc3LjMyODEgMTA1LjAzMSA5Ni4wMTk1IDEwOC4wMzkgMTE1LjkyMiAxMDguMDM5QzEzNS44NDQgMTA4LjAzOSAxNTQuNTM1IDEwNS4wMzEgMTY4LjU5OCA5OS41NjI1QzE3Mi4zMDkgOTguMTE3MiAxNzUuNjI5IDk2LjUxNTYgMTc4LjUyIDk0Ljc5NjlWMTExLjc3QzE3Ny45MTQgMTE0LjM4NyAxNzMuNjc2IDExOC42NjQgMTYzLjUyIDEyMi41OUMxNTEuMjE1IDEyNy4zMzYgMTMzLjg3MSAxMzAuMDcgMTE1LjkyMiAxMzAuMDdDOTguMDMxMyAxMzAuMDcgODAuNzQ2MSAxMjcuMzM2IDY4LjUxOTUgMTIyLjU5QzU4LjE0ODQgMTE4LjU2NiA1My41IDExMy44NzkgNTMuNSAxMTEuMDI3Vjk0LjgzNTlINTMuNDgwNVpNMTc1LjQzNCAxNTIuMDYzQzE3Mi42MjEgMTU0LjU0MyAxNjguMjI3IDE1Ni45NDUgMTYyLjcxOSAxNTkuMDE2QzE1MC4zNTUgMTYzLjY0NSAxMzMuNzU0IDE2Ni4xODQgMTE2IDE2Ni4xODRDOTguMjQ2MSAxNjYuMTg0IDgxLjY0NDUgMTYzLjY0NSA2OS4yODEyIDE1OS4wMTZDNjMuNzczNCAxNTYuOTY1IDU5LjM3ODkgMTU0LjU2MyA1Ni41NjY0IDE1Mi4wNjNDNTUuNDE0MSAxNTEuMDQ3IDUzLjQ4MDUgMTQ5LjA1NSA1My40ODA1IDE0Ny4xOTlWMTMwLjkzQzU2LjM3MTEgMTMyLjY0OCA1OS42OTE0IDEzNC4yNSA2My40MDIzIDEzNS42OTVDNzcuNDA2MiAxNDEuMTQ1IDk2LjA1ODYgMTQ0LjEzMyAxMTUuOTAyIDE0NC4xMzNDMTM1LjgwNSAxNDQuMTMzIDE1NC41MTYgMTQxLjE0NSAxNjguNTc4IDEzNS43MTVDMTcyLjQ2NSAxMzQuMjExIDE3NS43NDYgMTMyLjYwOSAxNzguNTIgMTMwLjk4OFYxNDcuMjE5QzE3OC41MiAxNDkuMDU1IDE3Ni41ODYgMTUxLjA0NyAxNzUuNDM0IDE1Mi4wNjNaIi8+JiN4YTs8cGF0aCBmaWxsPSIjMzMzMzMzIiBkPSJNMTU4Ljg3NSA3Ni45NDE4QzE1OS4xMzQgNzguNTM3MSAxNjAuMDE2IDc5Ljk2NDMgMTYxLjMyNyA4MC45MDk0QzE2MS45NzYgODEuMzc3NCAxNjIuNzExIDgxLjcxMjkgMTYzLjQ5IDgxLjg5NjhDMTY0LjI2OSA4Mi4wODA3IDE2NS4wNzYgODIuMTA5NCAxNjUuODY2IDgxLjk4MTNDMTY2LjY1NiA4MS44NTMyIDE2Ny40MTMgODEuNTcwNyAxNjguMDk0IDgxLjE1MDFDMTY4Ljc3NCA4MC43Mjk0IDE2OS4zNjYgODAuMTc4OCAxNjkuODM0IDc5LjUyOTZDMTcwLjMwMiA3OC44ODA1IDE3MC42MzcgNzguMTQ1NSAxNzAuODIxIDc3LjM2NjdDMTcxLjAwNSA3Ni41ODc5IDE3MS4wMzQgNzUuNzgwNSAxNzAuOTA1IDc0Ljk5MDVDMTcwLjY0NyA3My4zOTUyIDE2OS43NjUgNzEuOTY4IDE2OC40NTQgNzEuMDIzQzE2Ny4xNDMgNzAuMDc3OSAxNjUuNTEgNjkuNjkyMyAxNjMuOTE1IDY5Ljk1MUMxNjIuMzE5IDcwLjIwOTggMTYwLjg5MiA3MS4wOTE3IDE1OS45NDcgNzIuNDAyN0MxNTkuMDAyIDczLjcxMzcgMTU4LjYxNiA3NS4zNDY1IDE1OC44NzUgNzYuOTQxOFoiLz4mI3hhOzxwYXRoIGZpbGw9IiMzMzMzMzMiIGQ9Ik0xNTguODcxIDExMS40NTdDMTU4Ljg3MSAxMTMuMDczIDE1OS41MTMgMTE0LjYyMyAxNjAuNjU2IDExNS43NjZDMTYxLjc5OSAxMTYuOTA5IDE2My4zNDkgMTE3LjU1MSAxNjQuOTY1IDExNy41NTFDMTY2LjU4MSAxMTcuNTUxIDE2OC4xMzEgMTE2LjkwOSAxNjkuMjc0IDExNS43NjZDMTcwLjQxNyAxMTQuNjIzIDE3MS4wNTkgMTEzLjA3MyAxNzEuMDU5IDExMS40NTdDMTcxLjA1OSAxMDkuODQxIDE3MC40MTcgMTA4LjI5MSAxNjkuMjc0IDEwNy4xNDhDMTY4LjEzMSAxMDYuMDA1IDE2Ni41ODEgMTA1LjM2MyAxNjQuOTY1IDEwNS4zNjNDMTYzLjM0OSAxMDUuMzYzIDE2MS43OTkgMTA2LjAwNSAxNjAuNjU2IDEwNy4xNDhDMTU5LjUxMyAxMDguMjkxIDE1OC44NzEgMTA5Ljg0MSAxNTguODcxIDExMS40NTdaIi8+JiN4YTs8cGF0aCBmaWxsPSIjMzMzMzMzIiBkPSJNMTU4Ljg3MSAxNDguMDU5QzE1OC44NzEgMTQ5LjY3NSAxNTkuNTEzIDE1MS4yMjUgMTYwLjY1NiAxNTIuMzY4QzE2MS43OTkgMTUzLjUxIDE2My4zNDkgMTU0LjE1MiAxNjQuOTY1IDE1NC4xNTJDMTY2LjU4MSAxNTQuMTUyIDE2OC4xMzEgMTUzLjUxIDE2OS4yNzQgMTUyLjM2OEMxNzAuNDE3IDE1MS4yMjUgMTcxLjA1OSAxNDkuNjc1IDE3MS4wNTkgMTQ4LjA1OUMxNzEuMDU5IDE0Ni40NDIgMTcwLjQxNyAxNDQuODkyIDE2OS4yNzQgMTQzLjc1QzE2OC4xMzEgMTQyLjYwNyAxNjYuNTgxIDE0MS45NjUgMTY0Ljk2NSAxNDEuOTY1QzE2My4zNDkgMTQxLjk2NSAxNjEuNzk5IDE0Mi42MDcgMTYwLjY1NiAxNDMuNzVDMTU5LjUxMyAxNDQuODkyIDE1OC44NzEgMTQ2LjQ0MiAxNTguODcxIDE0OC4wNTlaIi8+JiN4YTs8L2c+JiN4YTs8ZGVmcz4mI3hhOzxjbGlwUGF0aCBpZD0iY2xpcDBfMF8xIj4mI3hhOzxyZWN0IGZpbGw9IndoaXRlIiBoZWlnaHQ9IjIwMCIgd2lkdGg9IjIwMCIvPiYjeGE7PC9jbGlwUGF0aD4mI3hhOzwvZGVmcz4mI3hhOzwvc3ZnPg==;" vertex="1" parent="1">
          <mxGeometry x="349" y="255" width="29.89" height="34" as="geometry" />
        </mxCell>
        <mxCell id="q-1dDg8Za3zNrtGVE4Yi-38" value="&lt;font style=&quot;font-size: 8px;&quot; face=&quot;Times New Roman&quot;&gt;Poisoned dataset&lt;/font&gt;" style="text;strokeColor=none;align=center;fillColor=none;html=1;verticalAlign=middle;whiteSpace=wrap;rounded=0;" vertex="1" parent="1">
          <mxGeometry x="337" y="238" width="55" height="12" as="geometry" />
        </mxCell>
      </root>
    </mxGraphModel>
  </diagram>
</mxfile>
